<?xml version="1.0" standalone="no"?>
<!DOCTYPE svg PUBLIC "-//W3C//DTD SVG 20010904//EN"
 "http://www.w3.org/TR/2001/REC-SVG-20010904/DTD/svg10.dtd">
<svg version="1.0" xmlns="http://www.w3.org/2000/svg"
 width="150.000000pt" height="150.000000pt" viewBox="0 0 150.000000 150.000000"
 preserveAspectRatio="xMidYMid meet">
<metadata>
Created by potrace 1.10, written by Peter Selinger 2001-2011
</metadata>
<g transform="translate(0.000000,150.000000) scale(0.100000,-0.100000)"
fill="#000000" stroke="none">
<path d="M27 1493 c-4 -3 -6 -103 -5 -222 1 -119 4 -184 5 -144 l4 72 91 3 91
3 15 43 c19 59 101 145 170 179 48 23 70 28 138 28 71 0 87 -4 146 -34 l67
-33 28 20 c16 11 55 28 87 37 77 23 151 14 233 -26 72 -35 123 -89 154 -165
l23 -54 98 0 98 0 0 -75 0 -75 -99 0 -98 0 -18 -47 c-27 -70 -115 -154 -190
-182 -87 -33 -189 -27 -269 17 l-59 31 -25 -19 c-59 -47 -187 -63 -278 -35
-93 29 -194 128 -211 208 l-5 27 -99 0 -99 0 1 -137 c2 -174 14 -365 19 -283
2 30 2 69 1 86 -1 18 3 33 11 36 7 3 326 4 708 4 l695 -1 1 -45 c5 -318 21
-17 23 422 1 333 -3 388 -25 365 -3 -2 -6 -63 -7 -133 l-2 -129 -77 -3 -77 -3
-19 45 c-27 61 -92 128 -160 167 -48 27 -70 33 -138 37 -86 5 -170 -14 -206
-46 -16 -14 -24 -12 -86 17 -77 35 -162 43 -242 21 -93 -25 -199 -120 -232
-207 -12 -33 -12 -33 -80 -33 -81 0 -79 -5 -76 158 3 106 -3 128 -25 105z
m168 -475 c1 -1 14 -25 28 -53 34 -69 82 -116 150 -149 31 -16 57 -30 57 -32
0 -1 -85 -3 -190 -4 l-189 0 0 117 c0 64 4 120 8 123 10 5 130 4 136 -2z
m1254 -118 l2 -120 -208 1 c-156 0 -202 3 -183 11 99 42 164 99 206 181 l24
47 79 0 78 0 2 -120z m-636 -100 c9 0 18 -4 21 -9 4 -5 -37 -10 -95 -10 -65
-1 -98 2 -94 9 3 5 13 10 20 10 8 0 29 9 46 19 32 20 33 20 60 0 15 -10 34
-19 42 -19z"/>
<path d="M439 1404 c-59 -18 -133 -83 -164 -145 -14 -27 -25 -51 -25 -54 0 -3
85 -5 189 -5 l189 0 7 30 c4 17 22 53 41 82 32 47 33 51 17 64 -56 42 -169 55
-254 28z m204 -31 c16 -8 27 -17 25 -21 -2 -4 -16 -33 -33 -65 l-29 -57 -158
0 c-87 0 -158 2 -158 5 0 33 64 101 122 131 63 33 175 36 231 7z"/>
<path d="M870 1411 c-23 -7 -90 -39 -99 -47 -1 -1 11 -20 28 -41 17 -21 37
-56 44 -78 l14 -40 186 -3 c127 -2 187 1 187 8 0 22 -41 91 -75 125 -55 54
-110 78 -190 81 -38 2 -81 0 -95 -5z m201 -47 c48 -24 119 -97 119 -121 0 -11
-31 -13 -157 -11 l-158 3 -22 47 c-12 25 -27 49 -32 53 -6 3 -11 10 -11 14 0
9 63 38 95 44 41 8 121 -6 166 -29z"/>
<path d="M712 1301 c-16 -22 -35 -61 -42 -86 l-13 -45 -208 0 -209 0 0 -40 0
-40 210 0 c193 0 210 -1 210 -17 0 -27 44 -115 67 -136 20 -17 21 -17 52 30
17 26 34 64 37 85 l7 38 208 0 209 0 0 40 0 40 -210 0 c-205 0 -210 1 -210 20
0 23 -33 93 -61 128 l-18 23 -29 -40z m69 -66 c19 -55 39 -85 56 -85 8 0 12
-4 9 -8 -7 -11 37 -9 45 2 4 5 13 5 20 1 11 -7 72 -8 149 -1 14 1 35 -1 48 -6
12 -4 22 -4 22 1 0 4 14 8 30 8 17 0 30 -4 30 -9 0 -4 5 -7 11 -6 6 2 14 -3
16 -9 4 -10 -40 -13 -196 -13 -220 0 -205 5 -232 -72 -10 -26 -24 -57 -32 -69
l-16 -22 -20 34 c-12 19 -26 51 -31 71 -6 21 -19 42 -30 48 -11 6 -98 10 -204
10 -178 0 -186 1 -186 20 0 19 8 19 197 20 214 0 205 -3 223 61 6 20 19 48 31
63 25 31 39 22 60 -39z"/>
<path d="M54 1131 l1 -40 77 -3 76 -3 0 43 0 42 -78 0 -77 0 1 -39z m124 -3
c-3 -8 -22 -13 -48 -13 -26 0 -45 5 -47 13 -3 8 10 12 47 12 37 0 50 -4 48
-12z"/>
<path d="M1280 1130 l0 -40 80 0 80 0 0 40 0 40 -80 0 -80 0 0 -40z m128 -5
c-4 -15 -100 -13 -106 3 -3 10 9 12 52 10 31 -2 55 -7 54 -13z"/>
<path d="M261 1023 c37 -105 155 -185 273 -185 47 0 78 6 120 25 31 14 56 30
56 35 0 5 -9 17 -19 27 -11 9 -30 41 -42 71 l-23 54 -187 0 -188 0 10 -27z
m341 -5 c8 -7 27 -35 42 -62 23 -42 25 -52 13 -64 -16 -15 -77 -31 -123 -32
-83 0 -197 67 -233 137 l-11 22 142 4 c79 1 146 4 149 5 3 1 12 -4 21 -10z"/>
<path d="M847 1022 c-3 -15 -22 -52 -41 -81 l-36 -52 56 -26 c70 -32 171 -34
236 -5 75 33 143 104 163 170 l6 22 -189 0 -189 0 -6 -28z m271 -1 c42 -1 72
-5 72 -11 0 -19 -83 -101 -125 -123 -54 -29 -186 -31 -227 -3 l-27 18 23 36
c13 21 26 47 30 59 8 26 20 29 111 26 39 -1 103 -2 143 -2z"/>
<path d="M460 719 c-53 -10 -102 -33 -121 -55 -10 -13 -2 -11 31 7 25 12 74
31 110 40 68 18 56 23 -20 8z"/>
<path d="M598 709 c24 -4 68 -21 98 -38 30 -16 57 -25 60 -20 9 16 84 50 127
59 l42 8 -38 1 c-23 1 -60 -10 -92 -25 l-54 -27 -52 27 c-33 16 -68 26 -93 25
l-41 -1 43 -9z"/>
<path d="M1029 704 c59 -16 105 -41 160 -88 29 -25 32 -26 16 -6 -11 14 -28
31 -37 38 -9 7 -23 18 -30 25 -20 19 -100 47 -133 46 -23 0 -17 -4 24 -15z"/>
<path d="M467 669 c-42 -10 -81 -28 -74 -35 2 -2 23 3 47 11 60 21 139 19 196
-6 60 -25 60 -25 44 -44 -7 -9 -11 -17 -9 -19 2 -2 12 7 22 20 17 23 17 24 -9
40 -30 20 -117 44 -154 43 -14 -1 -42 -5 -63 -10z"/>
<path d="M885 671 c-16 -4 -49 -18 -73 -30 l-43 -22 23 -28 c26 -33 35 -33 18
-1 -14 26 -9 31 54 55 47 17 147 18 201 1 11 -3 6 0 -12 9 -40 18 -128 27
-168 16z"/>
<path d="M313 630 c-49 -20 -66 -89 -26 -104 17 -7 69 21 59 32 -4 3 -12 0
-18 -6 -21 -21 -48 -14 -48 11 0 27 25 54 55 59 16 2 20 -3 20 -26 0 -16 5
-31 10 -33 12 -4 13 46 2 65 -9 14 -23 14 -54 2z"/>
<path d="M504 611 c-17 -11 -46 -40 -64 -65 -19 -25 -35 -44 -37 -42 -2 2 5
28 17 57 11 30 20 55 20 57 0 1 -13 -7 -30 -19 -23 -17 -27 -26 -19 -36 9 -10
5 -25 -13 -62 l-24 -49 70 1 c39 1 77 6 84 10 6 5 12 4 12 0 0 -12 100 -13
123 -1 11 5 17 5 17 -2 0 -19 25 -10 65 23 39 31 40 31 23 5 -20 -31 -22 -38
-9 -38 5 0 19 16 30 36 23 38 41 42 21 4 -17 -32 3 -49 30 -25 11 10 20 23 20
29 0 6 -10 0 -21 -14 -17 -20 -20 -21 -14 -5 4 11 8 27 9 35 2 22 -44 19 -71
-4 -23 -19 -23 -19 -23 2 0 27 -10 28 -43 2 -21 -16 -26 -17 -31 -5 -3 8 -1
17 4 20 6 4 10 11 10 17 0 5 -14 -4 -30 -22 -17 -18 -28 -35 -25 -38 3 -3 12
3 20 14 12 16 14 16 15 3 0 -23 -32 -49 -38 -31 -3 10 -7 10 -20 0 -10 -8 -6
5 10 34 15 26 22 50 17 53 -5 4 -9 14 -9 24 0 21 -30 51 -51 51 -8 0 -28 -9
-45 -19z m83 -30 c10 -35 6 -50 -24 -89 -28 -37 -45 -37 -19 0 22 31 20 37
-10 33 -14 -1 -40 -16 -58 -34 -17 -17 -35 -31 -38 -31 -7 0 46 86 82 132 25
32 57 27 67 -11z m-134 -58 c-21 -32 -47 -59 -58 -62 -16 -3 -17 -1 -7 11 6 8
8 19 4 23 -4 5 -2 5 5 1 8 -4 26 12 50 43 50 68 54 57 6 -16z m78 -21 c-12
-23 -41 -48 -41 -35 0 5 7 19 16 31 19 27 39 30 25 4z m170 -16 c-11 -26 -31
-36 -31 -14 0 13 31 50 37 44 2 -2 -1 -15 -6 -30z"/>
<path d="M963 614 c-45 -23 -64 -47 -67 -88 -2 -20 -6 -39 -10 -43 -11 -12 16
-33 43 -33 34 0 87 33 96 59 3 12 15 21 25 21 10 0 25 3 34 6 12 4 9 -6 -11
-41 -14 -26 -21 -46 -14 -44 12 4 80 115 81 133 0 5 -6 4 -13 -2 -10 -8 -16
-6 -25 9 -12 19 -11 20 20 17 25 -2 34 -9 39 -28 l7 -25 1 28 c1 34 -35 55
-66 39 -12 -7 -25 -7 -34 -1 -21 13 -70 10 -106 -7z m120 -14 c17 -16 3 -55
-22 -58 l-24 -4 22 31 c12 17 18 31 13 31 -6 0 -24 -23 -42 -50 -18 -28 -44
-59 -58 -70 -32 -25 -68 -26 -68 -2 0 14 6 17 28 14 54 -8 117 86 64 96 -22 5
-66 -35 -66 -60 0 -10 4 -18 10 -18 5 0 7 6 4 14 -6 15 32 56 53 56 21 0 15
-29 -12 -56 -51 -51 -99 -7 -55 49 32 41 122 57 153 27z"/>
<path d="M729 572 c-13 -15 -12 -16 3 -4 13 10 17 10 21 0 4 -9 6 -9 6 -1 2
20 -16 24 -30 5z"/>
<path d="M1234 563 c-49 -81 -66 -104 -70 -100 -3 3 4 24 16 47 31 60 18 60
-19 1 -17 -28 -35 -51 -41 -51 -6 0 -3 11 6 25 8 13 12 29 8 36 -4 7 -12 0
-20 -21 -8 -18 -14 -36 -14 -40 0 -9 106 -7 116 3 4 4 13 2 20 -4 14 -11 66
10 80 33 5 8 0 7 -11 -2 -16 -14 -17 -13 -11 7 12 38 -14 37 -55 -3 -39 -38
-51 -37 -26 1 39 58 57 95 48 95 -6 0 -18 -12 -27 -27z m40 -73 c-14 -28 -34
-41 -34 -22 0 8 38 52 45 52 2 0 -3 -13 -11 -30z"/>
<path d="M369 534 c-31 -59 -125 -104 -112 -54 6 21 -11 28 -22 10 -11 -17 15
-40 45 -40 15 0 39 9 54 21 26 20 61 77 53 85 -2 2 -10 -8 -18 -22z"/>
</g>
</svg>
